<svg width="24" height="32" viewBox="0 0 24 32" fill="none" xmlns="http://www.w3.org/2000/svg">
<g clip-path="url(#clip0_601_3370)">
<path d="M24.3125 6.19348V30.0644C24.3125 31.1367 23.4553 31.9999 22.3906 31.9999H1.89065C0.825919 31.9999 -0.03125 31.1367 -0.03125 30.0644V1.67735C-0.03125 0.60509 0.825919 -0.258057 1.89065 -0.258057H17.9062" fill="#0D4DA1"/>
<path d="M17.9062 -0.258057V4.25799C17.9062 5.33025 18.7634 6.19348 19.8281 6.19348H24.3125L17.9062 -0.258057Z" fill="#A6C5FA"/>
<path fill-rule="evenodd" clip-rule="evenodd" d="M5.10287 13.2894C5.01798 13.2882 4.9337 13.304 4.85492 13.3358C4.77615 13.3677 4.70445 13.415 4.64399 13.4751C4.58354 13.5351 4.53553 13.6066 4.50277 13.6855C4.47 13.7644 4.45312 13.849 4.45312 13.9345C4.45312 14.02 4.47 14.1047 4.50277 14.1836C4.53553 14.2624 4.58354 14.334 4.64399 14.394C4.70445 14.454 4.77615 14.5014 4.85492 14.5332C4.9337 14.5651 5.01798 14.5809 5.10287 14.5797H13.5912H19.1866C19.2715 14.5809 19.3558 14.5651 19.4346 14.5332C19.5133 14.5014 19.585 14.454 19.6455 14.394C19.706 14.334 19.754 14.2624 19.7867 14.1836C19.8195 14.1047 19.8364 14.02 19.8364 13.9345C19.8364 13.849 19.8195 13.7644 19.7867 13.6855C19.754 13.6066 19.706 13.5351 19.6455 13.4751C19.585 13.415 19.5133 13.3677 19.4346 13.3358C19.3558 13.304 19.2715 13.2882 19.1866 13.2894H13.5912H5.10287Z" fill="#F9F9F9"/>
<path fill-rule="evenodd" clip-rule="evenodd" d="M5.10287 15.8699C5.01798 15.8687 4.9337 15.8845 4.85492 15.9164C4.77615 15.9483 4.70445 15.9956 4.64399 16.0556C4.58354 16.1157 4.53553 16.1872 4.50277 16.2661C4.47 16.3449 4.45312 16.4296 4.45312 16.5151C4.45312 16.6006 4.47 16.6852 4.50277 16.7641C4.53553 16.843 4.58354 16.9145 4.64399 16.9746C4.70445 17.0346 4.77615 17.0819 4.85492 17.1138C4.9337 17.1457 5.01798 17.1615 5.10287 17.1603H13.5912H19.1866C19.2715 17.1615 19.3558 17.1457 19.4346 17.1138C19.5133 17.0819 19.585 17.0346 19.6455 16.9746C19.706 16.9145 19.754 16.843 19.7867 16.7641C19.8195 16.6852 19.8364 16.6006 19.8364 16.5151C19.8364 16.4296 19.8195 16.3449 19.7867 16.2661C19.754 16.1872 19.706 16.1157 19.6455 16.0556C19.585 15.9956 19.5133 15.9483 19.4346 15.9164C19.3558 15.8845 19.2715 15.8687 19.1866 15.8699H13.5912H5.10287Z" fill="#F9F9F9"/>
<path fill-rule="evenodd" clip-rule="evenodd" d="M5.10287 21.0313C5.01798 21.0301 4.9337 21.0459 4.85492 21.0778C4.77615 21.1097 4.70445 21.157 4.64399 21.217C4.58354 21.277 4.53553 21.3486 4.50277 21.4275C4.47 21.5063 4.45312 21.591 4.45312 21.6765C4.45312 21.762 4.47 21.8466 4.50277 21.9255C4.53553 22.0044 4.58354 22.0759 4.64399 22.1359C4.70445 22.196 4.77615 22.2433 4.85492 22.2752C4.9337 22.3071 5.01798 22.3228 5.10287 22.3216H10.6983H14.0616C14.1465 22.3228 14.2308 22.3071 14.3096 22.2752C14.3883 22.2433 14.46 22.196 14.5205 22.1359C14.581 22.0759 14.629 22.0044 14.6617 21.9255C14.6945 21.8466 14.7114 21.762 14.7114 21.6765C14.7114 21.591 14.6945 21.5063 14.6617 21.4275C14.629 21.3486 14.581 21.277 14.5205 21.217C14.46 21.157 14.3883 21.1097 14.3096 21.0778C14.2308 21.0459 14.1465 21.0301 14.0616 21.0313H10.6983H5.10287ZM16.6241 21.0313C16.5392 21.0301 16.4549 21.0459 16.3762 21.0778C16.2974 21.1097 16.2257 21.157 16.1652 21.217C16.1048 21.277 16.0568 21.3486 16.024 21.4275C15.9912 21.5063 15.9744 21.591 15.9744 21.6765C15.9744 21.762 15.9912 21.8466 16.024 21.9255C16.0568 22.0044 16.1048 22.0759 16.1652 22.1359C16.2257 22.196 16.2974 22.2433 16.3762 22.2752C16.4549 22.3071 16.5392 22.3228 16.6241 22.3216C16.709 22.3228 16.7933 22.3071 16.8721 22.2752C16.9508 22.2433 17.0225 22.196 17.083 22.1359C17.1434 22.0759 17.1915 22.0044 17.2242 21.9255C17.257 21.8466 17.2739 21.762 17.2739 21.6765C17.2739 21.591 17.257 21.5063 17.2242 21.4275C17.1915 21.3486 17.1434 21.277 17.083 21.217C17.0225 21.157 16.9508 21.1097 16.8721 21.0778C16.7933 21.0459 16.709 21.0301 16.6241 21.0313Z" fill="#F9F9F9"/>
<path fill-rule="evenodd" clip-rule="evenodd" d="M5.10287 18.4507C5.01798 18.4495 4.9337 18.4653 4.85492 18.4972C4.77615 18.5291 4.70445 18.5764 4.64399 18.6365C4.58354 18.6965 4.53553 18.768 4.50277 18.8469C4.47 18.9258 4.45312 19.0104 4.45312 19.0959C4.45312 19.1814 4.47 19.2661 4.50277 19.3449C4.53553 19.4238 4.58354 19.4953 4.64399 19.5554C4.70445 19.6154 4.77615 19.6627 4.85492 19.6946C4.9337 19.7265 5.01798 19.7423 5.10287 19.7411H13.5912H19.1866C19.2715 19.7423 19.3558 19.7265 19.4346 19.6946C19.5133 19.6627 19.585 19.6154 19.6455 19.5554C19.706 19.4953 19.754 19.4238 19.7867 19.3449C19.8195 19.2661 19.8364 19.1814 19.8364 19.0959C19.8364 19.0104 19.8195 18.9258 19.7867 18.8469C19.754 18.768 19.706 18.6965 19.6455 18.6365C19.585 18.5764 19.5133 18.5291 19.4346 18.4972C19.3558 18.4653 19.2715 18.4495 19.1866 18.4507H13.5912H5.10287Z" fill="#F9F9F9"/>
</g>
<defs>
<clipPath id="clip0_601_3370">
<rect width="24" height="32" fill="white"/>
</clipPath>
</defs>
</svg>
