<svg width="29" height="36" viewBox="0 0 29 36" fill="none" xmlns="http://www.w3.org/2000/svg">
<path d="M26.2381 21.3512C26.2402 18.2458 25.0259 15.265 22.8591 13.0565C22.841 13.0323 22.8214 13.0094 22.8004 12.9878C22.7786 12.9666 22.7556 12.9469 22.7313 12.9286C20.5399 10.7455 17.5819 9.52179 14.5 9.52341C11.4178 9.52156 8.45948 10.7453 6.26781 12.9286C6.21942 12.9649 6.17641 13.0079 6.14007 13.0565C3.97355 15.2652 2.75958 18.2459 2.76191 21.3512C2.75995 24.4564 3.97422 27.4368 6.14093 29.6451C6.15906 29.6693 6.17866 29.6922 6.19962 29.7138C6.22139 29.7352 6.24445 29.7553 6.26867 29.7738C8.46043 31.9564 11.4183 33.1797 14.5 33.1782C17.582 33.18 20.5402 31.9566 22.7322 29.7738C22.7803 29.7369 22.8233 29.6936 22.8599 29.6451C25.0263 27.4367 26.2403 24.4562 26.2381 21.3512ZM23.7135 22.0469H24.8356C24.6863 24.3307 23.7928 26.501 22.2938 28.2208L21.5049 27.4269C21.3743 27.3019 21.2005 27.2333 21.0205 27.2356C20.8404 27.2379 20.6684 27.311 20.5411 27.4393C20.4137 27.5676 20.3412 27.7409 20.3389 27.9223C20.3366 28.1037 20.4047 28.2788 20.5287 28.4104L21.3167 29.2043C19.61 30.7151 17.4558 31.6157 15.1888 31.766V30.6356C15.1888 30.4511 15.116 30.2741 14.9865 30.1437C14.857 30.0132 14.6814 29.9399 14.4983 29.9399C14.3152 29.9399 14.1395 30.0132 14.01 30.1437C13.8806 30.2741 13.8078 30.4511 13.8078 30.6356V31.766C11.541 31.6149 9.38694 30.7145 7.67983 29.2043L8.46784 28.4104C8.53199 28.3458 8.58289 28.2691 8.61763 28.1847C8.65237 28.1003 8.67027 28.0099 8.67031 27.9185C8.67035 27.8271 8.65253 27.7367 8.61786 27.6522C8.5832 27.5678 8.53236 27.4911 8.46827 27.4264C8.40417 27.3618 8.32807 27.3105 8.2443 27.2755C8.16053 27.2405 8.07075 27.2225 7.98006 27.2225C7.88938 27.2224 7.79957 27.2404 7.71577 27.2753C7.63198 27.3102 7.55583 27.3614 7.49168 27.426L6.70281 28.2208C5.20378 26.501 4.31027 24.3307 4.16099 22.0469H5.28302C5.46614 22.0469 5.64177 21.9736 5.77126 21.8431C5.90074 21.7127 5.97349 21.5357 5.97349 21.3512C5.97349 21.1667 5.90074 20.9898 5.77126 20.8593C5.64177 20.7289 5.46614 20.6556 5.28302 20.6556H4.16099C4.31046 18.3718 5.20395 16.2016 6.70281 14.4817L7.49168 15.2765C7.62222 15.4014 7.79605 15.47 7.9761 15.4677C8.15615 15.4654 8.32817 15.3923 8.4555 15.264C8.58282 15.1357 8.65537 14.9624 8.65768 14.781C8.65998 14.5996 8.59186 14.4245 8.46784 14.293L7.68156 13.4999C9.38854 11.9897 11.5427 11.0895 13.8095 10.9391V12.0695C13.8095 12.254 13.8823 12.4309 14.0118 12.5614C14.1413 12.6919 14.3169 12.7651 14.5 12.7651C14.6831 12.7651 14.8588 12.6919 14.9882 12.5614C15.1177 12.4309 15.1905 12.254 15.1905 12.0695V10.9391C17.4573 11.0895 19.6115 11.9897 21.3185 13.4999L20.5305 14.2947C20.4064 14.4262 20.3383 14.6014 20.3406 14.7828C20.3429 14.9642 20.4155 15.1375 20.5428 15.2658C20.6701 15.394 20.8421 15.4671 21.0222 15.4695C21.2022 15.4718 21.3761 15.4031 21.5066 15.2782L22.2955 14.4834C23.7943 16.2033 24.6878 18.3735 24.8373 20.6573H23.7153C23.5321 20.6573 23.3565 20.7306 23.227 20.8611C23.0975 20.9915 23.0248 21.1685 23.0248 21.353C23.0248 21.5375 23.0975 21.7144 23.227 21.8449C23.3565 21.9753 23.5321 22.0486 23.7153 22.0486L23.7135 22.0469ZM26.0025 12.4669L28.2172 10.2365C28.2814 10.1718 28.3323 10.0951 28.3671 10.0107C28.4018 9.92622 28.4197 9.8357 28.4197 9.74428C28.4197 9.65286 28.4018 9.56234 28.3671 9.47789C28.3323 9.39343 28.2814 9.31671 28.2172 9.2521L26.5083 7.53037C26.4441 7.46569 26.368 7.41438 26.2841 7.37937C26.2003 7.34436 26.1105 7.32634 26.0197 7.32634C25.929 7.32634 25.8391 7.34436 25.7553 7.37937C25.6715 7.41438 25.5954 7.46569 25.5312 7.53037L23.3174 9.7608C21.3041 8.20016 18.9174 7.20278 16.3988 6.8695V4.41471H18.1828C18.366 4.41471 18.5416 4.34142 18.6711 4.21096C18.8006 4.0805 18.8733 3.90356 18.8733 3.71906V0.734715C18.8733 0.550216 18.8006 0.373274 18.6711 0.242814C18.5416 0.112354 18.366 0.0390625 18.1828 0.0390625H10.8172C10.6341 0.0390625 10.4584 0.112354 10.3289 0.242814C10.1995 0.373274 10.1267 0.550216 10.1267 0.734715V3.71906C10.1267 3.90356 10.1995 4.0805 10.3289 4.21096C10.4584 4.34142 10.6341 4.41471 10.8172 4.41471H12.6012V6.8695C10.082 7.20323 7.69497 8.20155 5.68177 9.76341L3.46792 7.53037C3.4038 7.46569 3.32765 7.41438 3.24383 7.37937C3.16 7.34436 3.07015 7.32634 2.97941 7.32634C2.88867 7.32634 2.79882 7.34436 2.715 7.37937C2.63118 7.41438 2.55503 7.46569 2.4909 7.53037L0.781973 9.2521C0.717775 9.31671 0.666847 9.39343 0.632099 9.47789C0.597351 9.56234 0.579466 9.65286 0.579466 9.74428C0.579466 9.8357 0.597351 9.92622 0.632099 10.0107C0.666847 10.0951 0.717775 10.1718 0.781973 10.2365L2.99668 12.4669C1.0503 15.0131 -0.00353956 18.1374 8.93211e-06 21.3512C8.93211e-06 29.4069 6.50516 35.9599 14.5 35.9599C22.4949 35.9599 29 29.406 29 21.3512C29.0036 18.1374 27.9497 15.0131 26.0033 12.4669H26.0025ZM26.0197 9.00602L26.7525 9.74428L25.1074 11.4008C24.8727 11.1469 24.6287 10.9011 24.3755 10.6634L26.0197 9.00602ZM11.5077 1.43037H17.4924V3.02341H11.5077V1.43037ZM13.9822 4.41471H15.0179V6.75124C14.8452 6.74515 14.6726 6.7408 14.5 6.7408C14.3274 6.7408 14.1548 6.7408 13.9822 6.75124V4.41471ZM2.24406 9.74428L2.97682 9.00602L4.62188 10.6634C4.36871 10.9011 4.12445 11.1469 3.88912 11.4008L2.24406 9.74428ZM14.5 34.5695C7.26554 34.5695 1.38096 28.6399 1.38096 21.3521C1.38096 14.0643 7.26641 8.13471 14.5 8.13471C21.7336 8.13471 27.6191 14.0651 27.6191 21.3521C27.6191 28.6391 21.7345 34.5695 14.5 34.5695ZM17.5925 23.4782C17.7219 23.6087 17.7946 23.7857 17.7945 23.9702C17.7944 24.1548 17.7216 24.3317 17.592 24.4621C17.5279 24.5267 17.4517 24.5779 17.3679 24.6128C17.2842 24.6477 17.1943 24.6657 17.1037 24.6657C16.9205 24.6656 16.7449 24.5922 16.6155 24.4617L14.0115 21.8434C13.996 21.8278 13.9804 21.8104 13.9658 21.793L13.9468 21.7669L13.9261 21.7382C13.9191 21.7278 13.9131 21.7173 13.9071 21.7069C13.9014 21.6982 13.8962 21.6892 13.8915 21.6799C13.8855 21.6693 13.8803 21.6583 13.876 21.6469C13.8708 21.6373 13.8665 21.6278 13.8622 21.6182C13.8579 21.6086 13.8544 21.5965 13.8501 21.586C13.8458 21.5756 13.8423 21.5651 13.8397 21.5538C13.8372 21.5425 13.8337 21.5321 13.8311 21.5217C13.8285 21.5112 13.8251 21.4991 13.8233 21.4878C13.8216 21.4764 13.8233 21.4617 13.8173 21.4486C13.8113 21.4356 13.8173 21.4304 13.813 21.4208C13.8117 21.3979 13.8117 21.375 13.813 21.3521V14.593C13.813 14.4085 13.8857 14.2315 14.0152 14.1011C14.1447 13.9706 14.3203 13.8973 14.5035 13.8973C14.6866 13.8973 14.8622 13.9706 14.9917 14.1011C15.1212 14.2315 15.1939 14.4085 15.1939 14.593V21.0625L17.5925 23.4782Z" fill="white"/>
</svg>
