<svg width="28" height="34" viewBox="0 0 28 34" fill="none" xmlns="http://www.w3.org/2000/svg">
<path d="M27.0783 9.14082L18.7961 0.453574C18.6431 0.289324 18.4293 0.194824 18.2111 0.194824H5.10034C2.68159 0.194824 0.683594 2.18382 0.683594 4.60257V29.3953C0.683594 31.8141 2.68159 33.8031 5.10034 33.8031H22.8956C25.3143 33.8031 27.3123 31.8141 27.3123 29.3953V9.71007C27.3123 9.49857 27.2156 9.29607 27.0761 9.14082H27.0783ZM19.0368 3.06132L24.5808 8.88207H20.9786C19.9076 8.88207 19.0391 8.02257 19.0391 6.94932V3.06132H19.0368ZM25.6923 29.3976C25.6923 30.9253 24.4256 32.1831 22.9001 32.1831H5.10484C3.58834 32.1831 2.31259 30.9253 2.31259 29.3976V4.60482C2.31259 3.08832 3.57709 1.81932 5.10484 1.81932H17.4123V6.94932C17.4123 8.92032 19.0053 10.5066 20.9763 10.5066H25.6946V29.3976H25.6923Z" fill="white"/>
<path d="M7.31616 26.5806C6.86841 26.5806 6.50391 26.9473 6.50391 27.3928C6.50391 27.8383 6.87066 28.2051 7.31616 28.2051H20.6879C21.1357 28.2051 21.5002 27.8383 21.5002 27.3928C21.5002 26.9473 21.1334 26.5806 20.6789 26.5806H7.31616Z" fill="white"/>
<path d="M17.776 10.9025C17.4587 10.5852 16.948 10.5852 16.6307 10.9025L9.3655 18.143C9.27775 18.2307 9.20125 18.3455 9.163 18.476L7.7005 23.0862C7.61275 23.3787 7.68475 23.687 7.903 23.9075C8.056 24.0605 8.26975 24.1437 8.479 24.1437C8.56 24.1437 8.64325 24.128 8.72425 24.1032L13.3345 22.652C13.456 22.6115 13.5707 22.5462 13.6675 22.4495L20.9102 15.1842C21.2275 14.867 21.2275 14.3562 20.9102 14.039L17.7782 10.907L17.776 10.9025ZM9.721 22.0895L10.306 20.2377L11.5705 21.5045L9.71875 22.0895H9.721ZM13.0915 20.726L11.0867 18.7212L17.2 12.6237L19.189 14.6127L13.0915 20.726Z" fill="white"/>
</svg>
