<svg width="35" height="38" viewBox="0 0 35 38" fill="none" xmlns="http://www.w3.org/2000/svg">
<path d="M31.9064 16.451L16.1329 25.3909C15.6524 25.6626 15.0397 25.4972 14.7754 25.0367L9.30929 15.707C9.03299 15.2346 9.20117 14.6323 9.66969 14.3725L25.4432 5.43252C25.9238 5.16089 26.5365 5.32623 26.8008 5.78681L32.2668 15.1165C32.5552 15.5771 32.387 16.1794 31.9064 16.451Z" fill="white"/>
<path d="M31.9064 16.451L16.1329 25.3909C15.6524 25.6626 15.0397 25.4972 14.7754 25.0367L9.30929 15.707C9.03299 15.2346 9.20117 14.6323 9.66969 14.3725L25.4432 5.43252C25.9238 5.16089 26.5365 5.32623 26.8008 5.78681L32.2668 15.1165C32.5552 15.5771 32.387 16.1794 31.9064 16.451Z" fill="#00AEEF"/>
<path d="M25.7576 17.5575C26.4531 17.1567 26.692 16.268 26.2912 15.5725C25.8904 14.877 25.0017 14.6381 24.3062 15.0389C23.6107 15.4397 23.3718 16.3285 23.7726 17.024C24.1734 17.7195 25.0622 17.9583 25.7576 17.5575Z" fill="#79CAA1"/>
<path d="M27.8787 16.3446C28.5742 15.9438 28.8131 15.0551 28.4123 14.3596C28.0115 13.6641 27.1228 13.4252 26.4273 13.826C25.7318 14.2268 25.4929 15.1156 25.8937 15.8111C26.2945 16.5066 27.1832 16.7455 27.8787 16.3446Z" fill="#65D5FF"/>
<path fill-rule="evenodd" clip-rule="evenodd" d="M9.99219 17.3901L27.8111 7.12123L29.9168 10.7751L12.0979 21.044L9.99219 17.3901ZM10.9602 17.6503L12.3581 20.076L28.9488 10.5149L27.5509 8.08922L10.9602 17.6503Z" fill="white"/>
<rect x="6.67145" y="13.5645" width="22" height="13.2103" rx="1.5" transform="rotate(-26.7269 6.67145 13.5645)" stroke="white"/>
<path d="M24.0306 9.56919L13.1056 23.8472C12.7728 24.2741 12.1546 24.3571 11.7266 24.0369L3.10792 17.4672C2.67996 17.1351 2.59674 16.5184 2.91772 16.0915L13.8427 1.81352C14.1755 1.38661 14.7937 1.3036 15.2217 1.62378L23.8404 8.19356C24.2802 8.52561 24.3634 9.14227 24.0306 9.56919Z" fill="#00AEEF"/>
<path d="M18.9776 12.8783C19.4647 12.2402 19.3424 11.3281 18.7044 10.841C18.0663 10.3539 17.1542 10.4763 16.6671 11.1143C16.18 11.7523 16.3024 12.6644 16.9404 13.1515C17.5784 13.6386 18.4905 13.5163 18.9776 12.8783Z" fill="#65D5FF"/>
<path d="M20.4776 10.9417C20.9647 10.3037 20.8424 9.39162 20.2044 8.90451C19.5663 8.4174 18.6542 8.53975 18.1671 9.17777C17.68 9.81579 17.8024 10.7279 18.4404 11.215C19.0784 11.7021 19.9905 11.5798 20.4776 10.9417Z" fill="white"/>
<path fill-rule="evenodd" clip-rule="evenodd" d="M4.36719 18.8037L16.847 2.45738L20.1989 5.01642L7.71908 21.3628L4.36719 18.8037ZM5.36062 18.6705L7.58583 20.3693L19.2055 5.14967L16.9803 3.45081L5.36062 18.6705Z" fill="white"/>
<path d="M11.137 20.2134C12.1782 18.8509 13.2316 17.4884 14.2728 16.1259C14.5423 15.7731 13.9421 15.4203 13.6726 15.7731C12.6314 17.1356 11.578 18.4981 10.5368 19.8606C10.2673 20.2134 10.8675 20.5662 11.137 20.2134Z" fill="#1E247E"/>
<path fill-rule="evenodd" clip-rule="evenodd" d="M5.65652 15.999C4.14648 15.999 3 17.1528 3 18.4762V33.5219C3 34.8383 4.13917 35.999 5.65652 35.999H29.3434C30.8686 35.999 32.0078 34.8433 32 33.5279L31.9999 33.5219V18.4762C31.9999 17.1597 30.8608 15.999 29.3434 15.999H5.65652ZM1 18.4762C1 15.9506 3.14209 13.999 5.65652 13.999H29.3434C31.8735 13.999 33.9999 15.9655 33.9999 18.4762V33.5193C34.0131 36.0512 31.8646 37.999 29.3434 37.999H5.65652C3.1264 37.999 1 36.0325 1 33.5219V18.4762Z" fill="white"/>
<rect x="0.993148" y="18.497" width="22" height="12.5845" rx="1.5" transform="rotate(-53.0268 0.993148 18.497)" stroke="white"/>
<path d="M29.3434 36.999H5.65652C3.63279 36.999 2 35.4354 2 33.5219V18.4762C2 16.5517 3.64429 14.999 5.65652 14.999H29.3434C31.3672 14.999 32.9999 16.5626 32.9999 18.4762V33.5219C33.0114 35.4463 31.3672 36.999 29.3434 36.999Z" fill="#00AEEF"/>
<path d="M33.0417 28.9642H26.516C25.0127 28.9642 23.8008 27.7262 23.8008 26.1906V25.7145C23.8008 24.1789 25.0127 22.9409 26.516 22.9409H33.0417C33.8807 22.9409 34.5566 23.6313 34.5566 24.4884V27.4048C34.5566 28.2619 33.8807 28.9642 33.0417 28.9642Z" fill="#00AEEF"/>
<path fill-rule="evenodd" clip-rule="evenodd" d="M26.2313 23.0711C24.8587 23.0711 24.1652 23.8499 24.1652 25.2404V25.7828C24.1652 27.1733 24.8587 27.9521 26.2313 27.9521H29.8469H33.0468C33.7198 27.9521 33.979 27.6971 33.979 27.0079V23.9778C33.979 23.2923 33.6227 23.0711 32.946 23.0711H26.2313ZM23 25.2517C23 23.4514 24.4336 21.999 26.2106 21.999H33.0468C34.128 21.999 35 22.8825 35 23.9778V27.0079C35 28.0995 34.1316 28.999 33.0468 28.999H26.2106C24.4335 28.999 23 27.5467 23 25.7464V25.2517Z" fill="white"/>
<path fill-rule="evenodd" clip-rule="evenodd" d="M27.5 24.6687C27.0414 24.6687 26.6696 25.0404 26.6696 25.499C26.6696 25.9576 27.0414 26.3294 27.5 26.3294C27.9586 26.3294 28.3304 25.9576 28.3304 25.499C28.3304 25.0404 27.9586 24.6687 27.5 24.6687ZM26 25.499C26 24.6706 26.6716 23.999 27.5 23.999C28.3284 23.999 29 24.6706 29 25.499C29 26.3275 28.3284 26.999 27.5 26.999C26.6716 26.999 26 26.3275 26 25.499Z" fill="white"/>
<path fill-rule="evenodd" clip-rule="evenodd" d="M32 25.499C32 25.7752 32.1217 25.999 32.2717 25.999H34.7283C34.8783 25.999 35 25.7752 35 25.499C35 25.2229 34.8783 24.999 34.7283 24.999H32.2717C32.1217 24.999 32 25.2229 32 25.499Z" fill="white"/>
</svg>
